<?xml version="1.0" ?><svg height="24px" version="1.1" viewBox="0 0 24 24" width="24px" xmlns="http://www.w3.org/2000/svg" xmlns:sketch="http://www.bohemiancoding.com/sketch/ns" xmlns:xlink="http://www.w3.org/1999/xlink"><title/><desc/><defs/><g fill="none" fill-rule="evenodd" id="miu" stroke="none" stroke-width="1"><g id="Artboard-1" transform="translate(-287.000000, -515.000000)"><g id="slice" transform="translate(215.000000, 119.000000)"/><path d="M300.348009,536 C300.348009,536 300.348009,536.475708 300.758739,536.65387 C301.169469,536.832031 303.582591,537.025024 303.582591,537.515198 C303.582591,538.005371 301.541514,538 299.632457,538 C297.723399,538 295.682323,538.005371 295.682323,537.515198 C295.682323,537.025024 298.095445,536.832031 298.506175,536.65387 C298.916905,536.475708 298.916905,536 298.916905,536 L298.916905,529.885191 C298.698962,526.98762 295.641492,526.490991 295.141755,522.5 C294.635488,518.456868 295.648021,516 295.648021,516 L299.648021,516 L303.651339,516 C303.651339,516 304.663871,518.456868 304.157605,522.5 C303.651339,526.543132 300.520073,527 300.375379,530 L300.348009,536 Z M299.722345,517 L296.473954,517 C296.473954,517 296.36787,517.251873 296.348304,517.340096 C296.038163,518.738515 295.93859,520.431673 296.182021,522.375754 C296.355758,523.763248 296.817371,524.636801 297.80925,525.797399 C297.901237,525.905033 298.304939,526.36783 298.411495,526.492898 C299.032082,527.221298 299.451795,527.848989 299.699424,528.532509 C299.891196,527.848989 300.310909,527.221298 300.931496,526.492898 C301.038052,526.36783 301.441754,525.905033 301.533741,525.797399 C302.52562,524.636801 302.987233,523.763248 303.16097,522.375754 C303.404401,520.431673 303.304828,518.738515 302.994687,517.340096 C302.975121,517.251873 302.869037,517 302.869037,517 L299.620646,517 L299.722345,517 L299.722345,517 Z" fill="#000000" id="food-drink-wine-glass-outline-stroke"/></g></g></svg>